<svg width="12" height="12" viewBox="0 0 12 12" fill="none" xmlns="http://www.w3.org/2000/svg">
<g clip-path="url(#clip0_14_1703)">
<path d="M9.85713 0H2.14285C0.959966 0.00140625 0.00140625 0.959966 0 2.14285V9.85713C0.00140625 11.04 0.959966 11.9986 2.14285 12H9.85713C11.04 11.9986 11.9986 11.04 12 9.85713V2.14285C11.9986 0.959966 11.04 0.00140625 9.85713 0ZM11.1428 9.85713C11.1428 10.5672 10.5672 11.1428 9.85713 11.1428H2.14285C1.43277 11.1428 0.857134 10.5672 0.857134 9.85713V2.14285C0.857134 1.43277 1.43277 0.857134 2.14285 0.857134H9.85713C10.5672 0.857134 11.1428 1.43277 11.1428 2.14285V9.85713Z" fill="black"/>
<path d="M8.14301 5.57143H6.42872V3.85714C6.42872 3.62044 6.23684 3.42856 6.00014 3.42856C5.76344 3.42856 5.57156 3.62044 5.57156 3.85714V5.57143H3.85729C3.62059 5.57143 3.42871 5.76331 3.42871 6.00001C3.42871 6.23671 3.62059 6.42856 3.85729 6.42856H5.57158V8.14286C5.57158 8.37956 5.76346 8.57144 6.00016 8.57144C6.23686 8.57144 6.42872 8.37953 6.42872 8.14286V6.42856H8.14301C8.37971 6.42856 8.57159 6.23669 8.57159 5.99998C8.57159 5.76328 8.37969 5.57143 8.14301 5.57143Z" fill="black"/>
</g>
<defs>
<clipPath id="clip0_14_1703">
<rect width="12" height="12" fill="white"/>
</clipPath>
</defs>
</svg>
