<svg width="32" height="32" viewBox="0 0 32 32" fill="none" xmlns="http://www.w3.org/2000/svg">
<g clip-path="url(#clip0_205_52)">
<path d="M5.6875 22.25V7.5625H2.1875C1.60734 7.5625 1.05094 7.79297 0.640704 8.2032C0.230468 8.61344 0 9.16984 0 9.75L0 29.8125C0 30.3927 0.230468 30.9491 0.640704 31.3593C1.05094 31.7695 1.60734 32 2.1875 32H22.25C22.8302 32 23.3866 31.7695 23.7968 31.3593C24.207 30.9491 24.4375 30.3927 24.4375 29.8125V26.3125H9.75C8.67296 26.3112 7.64042 25.8827 6.87884 25.1212C6.11726 24.3596 5.68882 23.327 5.6875 22.25V22.25Z" fill="#525252"/>
<path d="M29.8125 0H9.75C9.16984 0 8.61344 0.230468 8.2032 0.640704C7.79297 1.05094 7.5625 1.60734 7.5625 2.1875V22.25C7.5625 22.8302 7.79297 23.3866 8.2032 23.7968C8.61344 24.207 9.16984 24.4375 9.75 24.4375H29.8125C30.3927 24.4375 30.9491 24.207 31.3593 23.7968C31.7695 23.3866 32 22.8302 32 22.25V2.1875C32 1.60734 31.7695 1.05094 31.3593 0.640704C30.9491 0.230468 30.3927 0 29.8125 0V0ZM24.7812 13.1562H20.7188V17.2188C20.7188 17.4674 20.62 17.7058 20.4442 17.8817C20.2683 18.0575 20.0299 18.1562 19.7812 18.1562C19.5326 18.1562 19.2942 18.0575 19.1183 17.8817C18.9425 17.7058 18.8438 17.4674 18.8438 17.2188V13.1562H14.7812C14.5326 13.1562 14.2942 13.0575 14.1183 12.8817C13.9425 12.7058 13.8438 12.4674 13.8438 12.2188C13.8438 11.9701 13.9425 11.7317 14.1183 11.5558C14.2942 11.38 14.5326 11.2812 14.7812 11.2812H18.8438V7.21875C18.8438 6.97011 18.9425 6.73165 19.1183 6.55584C19.2942 6.38002 19.5326 6.28125 19.7812 6.28125C20.0299 6.28125 20.2683 6.38002 20.4442 6.55584C20.62 6.73165 20.7188 6.97011 20.7188 7.21875V11.2812H24.7812C25.0299 11.2812 25.2683 11.38 25.4442 11.5558C25.62 11.7317 25.7188 11.9701 25.7188 12.2188C25.7188 12.4674 25.62 12.7058 25.4442 12.8817C25.2683 13.0575 25.0299 13.1562 24.7812 13.1562Z" fill="#525252"/>
</g>
<defs>
<clipPath id="clip0_205_52">
<rect width="32" height="32" fill="white"/>
</clipPath>
</defs>
</svg>
