<svg width="29" height="17" viewBox="0 0 29 17" fill="none" xmlns="http://www.w3.org/2000/svg">
<path d="M7.728 11.4C7.76 11.6453 7.81867 11.8427 7.904 11.992C8 12.1413 8.096 12.2373 8.192 12.28C8.288 12.312 8.37333 12.3547 8.448 12.408C8.52267 12.4613 8.56 12.536 8.56 12.632C8.56 12.9413 8.048 13.096 7.024 13.096C6.55467 13.096 6.208 13.0373 5.984 12.92C5.77067 12.792 5.64267 12.5627 5.6 12.232C5.184 12.8507 4.47467 13.16 3.472 13.16C2.576 13.16 1.85067 12.952 1.296 12.536C0.741333 12.12 0.464 11.5227 0.464 10.744C0.453333 9.976 0.725333 9.37867 1.28 8.952C1.83467 8.52533 2.528 8.312 3.36 8.312C4.064 8.312 4.64533 8.472 5.104 8.792L5.088 8.6C4.98133 7.58667 4.832 6.872 4.64 6.456C4.448 6.04 4.12267 5.832 3.664 5.832C3.376 5.832 3.14133 5.93867 2.96 6.152C2.77867 6.36533 2.65067 6.6 2.576 6.856C2.50133 7.112 2.37867 7.34667 2.208 7.56C2.03733 7.77333 1.81867 7.88 1.552 7.88C1.264 7.88 1.02933 7.8 0.848 7.64C0.677333 7.46933 0.592 7.25067 0.592 6.984C0.592 6.42933 0.885333 5.98667 1.472 5.656C2.06933 5.32533 2.8 5.16 3.664 5.16C4.69867 5.16 5.54667 5.45333 6.208 6.04C6.86933 6.62667 7.25867 7.42667 7.376 8.44L7.728 11.4ZM4.176 12.456C4.528 12.456 4.81067 12.312 5.024 12.024C5.23733 11.7253 5.33333 11.3893 5.312 11.016L5.264 10.456C5.22133 9.99733 5.08267 9.64533 4.848 9.4C4.624 9.15467 4.34133 9.032 4 9.032C3.65867 9.032 3.376 9.15467 3.152 9.4C2.93867 9.64533 2.832 9.97067 2.832 10.376C2.832 10.952 2.95467 11.4427 3.2 11.848C3.456 12.2533 3.78133 12.456 4.176 12.456ZM12.9941 5.16C13.9968 5.16 14.8715 5.50667 15.6181 6.2C16.3648 6.89333 16.7381 7.83733 16.7381 9.032C16.7381 10.2373 16.3701 11.2293 15.6341 12.008C14.9088 12.776 14.0341 13.16 13.0101 13.16C12.2635 13.16 11.6395 12.952 11.1381 12.536V14.92C11.1381 15.176 11.2501 15.416 11.4741 15.64C11.6981 15.864 11.8101 16.0293 11.8101 16.136V16.2C11.8101 16.3813 11.6875 16.472 11.4421 16.472H8.54612C8.30079 16.472 8.17812 16.3813 8.17812 16.2V16.136C8.17812 16.0293 8.27946 15.864 8.48212 15.64C8.69546 15.416 8.80212 15.176 8.80212 14.92V7.72C8.80212 7.48533 8.67946 7.272 8.43412 7.08C8.18879 6.87733 8.06612 6.71733 8.06612 6.6V6.52C8.06612 6.37067 8.17279 6.24267 8.38612 6.136L10.1781 5.256C10.5835 5.05333 10.7861 5.14933 10.7861 5.544L10.7701 6.216C11.2181 5.512 11.9595 5.16 12.9941 5.16ZM12.7701 12.472C13.2821 12.472 13.6768 12.2587 13.9541 11.832C14.2421 11.4053 14.3861 10.792 14.3861 9.992C14.3861 8.904 14.2101 7.944 13.8581 7.112C13.5061 6.26933 13.0315 5.848 12.4341 5.848C12.1035 5.848 11.8155 5.97067 11.5701 6.216C11.3248 6.45067 11.1808 6.76 11.1381 7.144V10.2C11.1381 10.8187 11.3035 11.352 11.6341 11.8C11.9648 12.248 12.3435 12.472 12.7701 12.472ZM17.1684 13C16.923 13 16.8004 12.9093 16.8004 12.728V12.664C16.8004 12.5573 16.9017 12.392 17.1044 12.168C17.3177 11.944 17.4244 11.7093 17.4244 11.464V3.592C17.4244 3.31467 17.3177 3.064 17.1044 2.84C16.9017 2.616 16.8004 2.46133 16.8004 2.376V2.312C16.8004 2.184 16.907 2.07733 17.1204 1.992L19.1364 0.999999C19.3497 0.914666 19.5097 0.904 19.6164 0.967999C19.7337 1.032 19.7924 1.13867 19.7924 1.288V11.464C19.7924 11.7093 19.9044 11.944 20.1284 12.168C20.363 12.392 20.4804 12.5573 20.4804 12.664V12.728C20.4804 12.9093 20.3577 13 20.1124 13H17.1684ZM24.8528 13.16C23.5834 13.16 22.5328 12.7707 21.7008 11.992C20.8794 11.2027 20.4688 10.2427 20.4688 9.112C20.4688 7.97067 20.8741 7.02667 21.6848 6.28C22.4954 5.53333 23.4714 5.16 24.6128 5.16C25.8394 5.16 26.8634 5.54933 27.6848 6.328C28.5061 7.096 28.9168 8.05067 28.9168 9.192C28.9168 10.3333 28.5274 11.2827 27.7488 12.04C26.9808 12.7867 26.0154 13.16 24.8528 13.16ZM25.1408 12.456C25.5781 12.456 25.9141 12.2533 26.1488 11.848C26.3941 11.4427 26.5168 10.872 26.5168 10.136C26.5168 9.528 26.4261 8.904 26.2448 8.264C26.0741 7.61333 25.8128 7.05333 25.4608 6.584C25.1088 6.104 24.7194 5.864 24.2928 5.864C23.3114 5.864 22.8208 6.64267 22.8208 8.2C22.8208 8.776 22.9061 9.384 23.0768 10.024C23.2581 10.664 23.5301 11.2293 23.8928 11.72C24.2661 12.2107 24.6821 12.456 25.1408 12.456Z" fill="#A5A5A5"/>
</svg>
