<svg width="10" height="11" viewBox="0 0 10 11" fill="none" xmlns="http://www.w3.org/2000/svg">
<path d="M1.64446 2.4336H8.26638L7.76313 8.96076C7.75028 9.12687 7.69019 9.26626 7.6262 9.34354C7.56235 9.42052 7.517 9.4406 7.44723 9.4406H2.46303C2.39312 9.4406 2.34805 9.42052 2.28406 9.34354C2.22008 9.26626 2.15984 9.12687 2.14713 8.96076L1.64446 2.4336ZM0.469408 1.49471C-0.156469 1.49471 -0.156469 2.4336 0.469408 2.4336H0.702542L1.21026 9.0324C1.2367 9.37011 1.35182 9.68804 1.56098 9.94197C1.77071 10.1953 2.09889 10.3795 2.46289 10.3795H7.44709C7.81195 10.3795 8.13926 10.1953 8.34914 9.94197C8.55902 9.68804 8.67241 9.37011 8.69899 9.0324L9.20758 2.4336H9.44157C10.0676 2.4336 10.0676 1.49471 9.44157 1.49471H0.469408Z" fill="black"/>
<path d="M3.93588 0C3.30913 0 3.30913 0.938889 3.93588 0.938889H5.97457C6.23413 0.938889 6.44401 0.729011 6.44401 0.469156C6.44401 0.209589 6.23413 0 5.97457 0H3.93588Z" fill="black"/>
</svg>
