<svg width="28" height="28" viewBox="0 0 28 28" fill="none" xmlns="http://www.w3.org/2000/svg">
<g clip-path="url(#clip0_205_50)">
<path d="M22.7865 0H5.21347C2.33875 0 0 2.33875 0 5.21368V22.7865C0 25.6613 2.33875 28 5.21347 28H22.7865C25.6613 28 28 25.6613 28 22.7865V5.21368C28 2.33875 25.6613 0 22.7865 0V0ZM20.5898 10.4272C20.0556 10.4272 19.5536 10.2868 19.118 10.0422L14.8203 14.3399V17.6873C16.0862 18.0456 17.017 19.2107 17.017 20.5898C17.017 22.2533 15.6635 23.6068 14 23.6068C12.3365 23.6068 10.983 22.2533 10.983 20.5898C10.983 19.2107 11.9138 18.0456 13.1797 17.6873V14.3399L8.88202 10.0422C8.44644 10.287 7.94443 10.4272 7.41016 10.4272C5.74667 10.4272 4.39316 9.07364 4.39316 7.41016C4.39316 5.74667 5.74667 4.39337 7.41016 4.39337C9.07364 4.39337 10.4272 5.74667 10.4272 7.41016C10.4272 7.94443 10.2868 8.44644 10.0422 8.88202L14 12.8398L17.9578 8.88202C17.713 8.44644 17.5728 7.94443 17.5728 7.41016C17.5728 5.74667 18.9264 4.39337 20.5898 4.39337C22.2533 4.39337 23.6068 5.74667 23.6068 7.41016C23.6068 9.07364 22.2533 10.4272 20.5898 10.4272V10.4272Z" fill="#525252"/>
</g>
<defs>
<clipPath id="clip0_205_50">
<rect width="28" height="28" fill="white"/>
</clipPath>
</defs>
</svg>
