<svg width="16" height="16" viewBox="0 0 16 16" fill="none" xmlns="http://www.w3.org/2000/svg">
<g clip-path="url(#clip0_93_250)">
<path d="M15.2295 2.47564C14.8927 1.22764 12.3853 0 7.99929 0C3.61325 0 1.10562 1.22764 0.769035 2.47564C0.744599 2.5184 0.726562 2.56524 0.726562 2.61818V2.76364V6.10909V6.25455V6.4V9.6V9.74545V9.89091V13.3818C0.726562 13.4289 0.739072 13.4735 0.760599 13.513C1.10416 14.937 4.17791 16 7.99929 16C11.8119 16 14.8807 14.9414 15.2357 13.5226C15.2589 13.481 15.272 13.433 15.272 13.3818V9.89091V9.74545V9.6V6.4V6.25455V6.10909V2.76364V2.61818C15.272 2.56524 15.254 2.5184 15.2295 2.47564ZM14.6672 9.88655C14.6591 9.92175 14.6477 9.95665 14.6335 9.99215C14.6218 10.0209 14.6076 10.0497 14.5919 10.0785C14.5724 10.1143 14.5506 10.1501 14.5247 10.1859C14.5055 10.2129 14.4837 10.2397 14.461 10.2665C14.4287 10.3046 14.3943 10.3427 14.3554 10.3805C14.3318 10.4035 14.3059 10.4262 14.2797 10.4492C14.232 10.4908 14.1823 10.5321 14.1267 10.5731C14.1029 10.5908 14.0773 10.608 14.0519 10.6255C13.9862 10.6708 13.9175 10.7159 13.8422 10.7601C13.8224 10.7721 13.8012 10.7834 13.7805 10.7951C13.6938 10.8439 13.6034 10.8925 13.5056 10.9396C13.4931 10.9457 13.48 10.9516 13.4672 10.9574C13.3581 11.0089 13.2441 11.0595 13.1222 11.1084C13.1187 11.1098 13.1152 11.111 13.1117 11.1124C12.4511 11.3763 11.606 11.5983 10.6213 11.7437C10.6163 11.7443 10.6114 11.7449 10.6064 11.7457C10.415 11.774 10.2186 11.799 10.017 11.8211C9.98416 11.8246 9.94954 11.8269 9.91638 11.8304C9.74038 11.8487 9.56234 11.8656 9.37907 11.879C9.29529 11.8851 9.20744 11.888 9.1222 11.8932C8.98431 11.9014 8.84787 11.9104 8.70649 11.9153C8.47551 11.9226 8.23987 11.9273 7.99929 11.9273C7.75871 11.9273 7.52307 11.9226 7.2918 11.9145C7.15042 11.9095 7.01398 11.9002 6.87609 11.8924C6.79085 11.8874 6.703 11.8842 6.61922 11.8781C6.43594 11.8647 6.25791 11.8479 6.08191 11.8295C6.04874 11.826 6.01413 11.8237 5.98125 11.8202C5.77965 11.7981 5.58329 11.7728 5.39187 11.7449C5.38693 11.7443 5.38198 11.7437 5.37704 11.7428C4.39231 11.5974 3.54722 11.3754 2.88656 11.1116C2.88307 11.1104 2.87958 11.1089 2.87609 11.1075C2.7542 11.0586 2.63987 11.008 2.53107 10.9565C2.51856 10.9504 2.50518 10.9446 2.49267 10.9388C2.39493 10.8916 2.30445 10.8433 2.21776 10.7942C2.1974 10.7825 2.17587 10.7712 2.15609 10.7593C2.08074 10.7151 2.01209 10.67 1.94634 10.6246C1.92133 10.6071 1.89544 10.59 1.87158 10.5722C1.81602 10.5312 1.76627 10.4899 1.71856 10.4483C1.69267 10.4256 1.66649 10.4029 1.64293 10.3796C1.60394 10.3418 1.56962 10.304 1.53733 10.2656C1.51464 10.2388 1.49282 10.2121 1.47362 10.185C1.44802 10.1492 1.4262 10.1135 1.40642 10.0777C1.39071 10.0489 1.37674 10.0201 1.36482 9.99127C1.35056 9.95607 1.33922 9.92087 1.33107 9.88567C1.32031 9.83942 1.30838 9.79229 1.30838 9.74545C1.30838 9.71258 1.31216 9.67971 1.3174 9.64713C1.32467 9.6032 1.3206 9.55927 1.30838 9.51767V7.35796C1.31653 7.36553 1.32671 7.3728 1.33514 7.38036C1.39856 7.43622 1.46314 7.49178 1.53587 7.54531C2.63173 8.37411 4.82314 9.01818 7.99929 9.01818C11.1621 9.01818 13.3479 8.37935 14.4485 7.55549C14.5363 7.49149 14.6154 7.42545 14.6899 7.35825L14.6902 7.35796V9.51767C14.678 9.55927 14.6739 9.6032 14.6812 9.64713C14.6867 9.67971 14.6902 9.71258 14.6902 9.74545C14.6902 9.79229 14.6783 9.83942 14.6672 9.88655ZM14.6902 3.86705V6.02676C14.678 6.06836 14.6739 6.11229 14.6812 6.15622C14.6867 6.1888 14.6902 6.22167 14.6902 6.25455C14.6902 6.30138 14.6783 6.34851 14.6672 6.39564C14.6591 6.43084 14.6477 6.46575 14.6335 6.50124C14.6218 6.53004 14.6076 6.55884 14.5919 6.58764C14.5724 6.62342 14.5506 6.6592 14.5247 6.69498C14.5055 6.72204 14.4837 6.7488 14.461 6.77556C14.4287 6.81367 14.3943 6.85178 14.3554 6.8896C14.3318 6.91258 14.3059 6.93527 14.2797 6.95825C14.232 6.99985 14.1823 7.04116 14.1267 7.08218C14.1029 7.09993 14.0773 7.11709 14.0519 7.13455C13.9862 7.17993 13.9175 7.22502 13.8422 7.26924C13.8224 7.28116 13.8012 7.29251 13.7805 7.30415C13.6938 7.35302 13.6034 7.4016 13.5056 7.44873C13.4931 7.45484 13.48 7.46065 13.4672 7.46647C13.3581 7.51796 13.2441 7.56858 13.1222 7.61745C13.1187 7.61891 13.1152 7.62007 13.1117 7.62153C12.4511 7.88538 11.606 8.10735 10.6213 8.2528C10.6163 8.25338 10.6114 8.25396 10.6064 8.25484C10.415 8.28305 10.2186 8.30807 10.017 8.33018C9.98416 8.33367 9.94954 8.336 9.91638 8.33949C9.74038 8.35782 9.56234 8.37469 9.37907 8.38807C9.29529 8.39418 9.20744 8.39709 9.1222 8.40233C8.98431 8.41047 8.84787 8.41949 8.70649 8.42444C8.47551 8.43171 8.23987 8.43636 7.99929 8.43636C7.75871 8.43636 7.52307 8.43171 7.2918 8.42356C7.15042 8.41862 7.01398 8.40931 6.87609 8.40145C6.79085 8.39651 6.703 8.39331 6.61922 8.3872C6.43594 8.37382 6.25791 8.35695 6.08191 8.33862C6.04874 8.33513 6.01413 8.3328 5.98125 8.32931C5.77965 8.3072 5.58329 8.28189 5.39187 8.25396C5.38693 8.25338 5.38198 8.2528 5.37704 8.25193C4.39231 8.10647 3.54722 7.88451 2.88656 7.62065C2.88307 7.61949 2.87958 7.61804 2.87609 7.61658C2.7542 7.56771 2.63987 7.51709 2.53107 7.4656C2.51856 7.45949 2.50518 7.45367 2.49267 7.44785C2.39493 7.40073 2.30445 7.35244 2.21776 7.30327C2.1974 7.29164 2.17587 7.28029 2.15609 7.26836C2.08074 7.22415 2.01209 7.17905 1.94634 7.13367C1.92133 7.11622 1.89544 7.09905 1.87158 7.08131C1.81602 7.04029 1.76627 6.99898 1.71856 6.95738C1.69267 6.93469 1.66649 6.912 1.64293 6.88873C1.60394 6.85091 1.56962 6.81309 1.53733 6.77469C1.51464 6.74793 1.49282 6.72116 1.47362 6.69411C1.44802 6.65833 1.4262 6.62255 1.40642 6.58676C1.39071 6.55796 1.37674 6.52916 1.36482 6.50036C1.35056 6.46516 1.33922 6.42996 1.33107 6.39476C1.32031 6.34851 1.30838 6.30138 1.30838 6.25455C1.30838 6.22167 1.31216 6.1888 1.3174 6.15622C1.32467 6.11229 1.3206 6.06836 1.30838 6.02676V3.86705C1.34329 3.89876 1.38314 3.92989 1.42096 3.96131C1.44191 3.97876 1.4614 3.99622 1.48351 4.01367C1.57078 4.08233 1.66504 4.15011 1.76714 4.21615C1.78838 4.22982 1.81224 4.2432 1.83434 4.25687C1.91987 4.31011 2.01034 4.36218 2.10547 4.41338C2.14067 4.43229 2.17587 4.45091 2.21224 4.46953C2.31842 4.52364 2.42984 4.57629 2.54707 4.6272C2.56627 4.63564 2.58373 4.64436 2.60322 4.65251C2.73965 4.7104 2.88453 4.76567 3.03522 4.8192C3.07682 4.83404 3.12045 4.848 3.16322 4.86255C3.28307 4.90298 3.407 4.94167 3.53529 4.9792C3.58154 4.99258 3.62693 5.00655 3.67434 5.01935C3.84453 5.06647 4.02024 5.11127 4.20467 5.15258C4.22998 5.1584 4.25733 5.16305 4.28293 5.16858C4.44554 5.20407 4.61427 5.23695 4.78765 5.26778C4.84642 5.27825 4.90605 5.28815 4.96598 5.29804C5.13093 5.32509 5.30082 5.34982 5.47507 5.37251C5.51987 5.37833 5.56264 5.38502 5.60802 5.39055C5.82445 5.41673 6.04845 5.43913 6.27856 5.45833C6.33529 5.46298 6.39434 5.46647 6.45194 5.47055C6.63609 5.48393 6.82431 5.49498 7.01689 5.50371C7.087 5.50691 7.15682 5.51011 7.22838 5.51273C7.47914 5.52116 7.73456 5.52727 7.99929 5.52727C8.26402 5.52727 8.51943 5.52116 8.7702 5.51273C8.84147 5.51011 8.91129 5.50691 8.98169 5.50371C9.17427 5.49498 9.36249 5.48393 9.54664 5.47055C9.60424 5.46618 9.663 5.46298 9.72002 5.45833C9.95013 5.43942 10.1741 5.41673 10.3906 5.39055C10.4359 5.38502 10.4787 5.37833 10.5235 5.37251C10.6978 5.34982 10.8674 5.32509 11.0326 5.29804C11.0925 5.28815 11.1522 5.27825 11.2109 5.26778C11.3843 5.23695 11.553 5.20407 11.7157 5.16858C11.7413 5.16305 11.7686 5.15811 11.7939 5.15258C11.9783 5.11127 12.1541 5.06618 12.3242 5.01935C12.3717 5.00625 12.417 4.99258 12.4633 4.9792C12.5916 4.94167 12.7155 4.90298 12.8354 4.86255C12.8781 4.848 12.9218 4.83404 12.9634 4.8192C13.1141 4.76567 13.2592 4.7104 13.3954 4.65251C13.4149 4.64436 13.4323 4.63564 13.4515 4.6272C13.5687 4.576 13.6802 4.52364 13.7863 4.46953C13.8227 4.45091 13.8582 4.43229 13.8931 4.41338C13.9882 4.36247 14.0787 4.3104 14.1642 4.25687C14.1863 4.2432 14.2102 4.22982 14.2314 4.21615C14.3335 4.15011 14.4278 4.08262 14.5151 4.01367C14.5369 3.99622 14.5564 3.97876 14.5776 3.96131C14.6154 3.92989 14.6553 3.89876 14.6902 3.86705ZM7.99929 0.581818C11.9426 0.581818 14.6902 1.73149 14.6902 2.76364C14.6902 3.79578 11.9426 4.94545 7.99929 4.94545C4.05602 4.94545 1.30838 3.79578 1.30838 2.76364C1.30838 1.73149 4.05602 0.581818 7.99929 0.581818ZM14.6902 13.2954C14.6861 13.3082 14.6832 13.3213 14.6809 13.3347C14.5159 14.3409 11.7916 15.4182 7.99929 15.4182C4.207 15.4182 1.48264 14.3409 1.31769 13.3347C1.31536 13.3216 1.31216 13.3088 1.30838 13.2966V10.8489C1.31653 10.8564 1.32671 10.8637 1.33514 10.8713C1.39856 10.9271 1.46314 10.9827 1.53587 11.0362C2.63173 11.865 4.82314 12.5091 7.99929 12.5091C11.1621 12.5091 13.3479 11.8703 14.4485 11.0464C14.5363 10.9824 14.6154 10.9164 14.6899 10.8492L14.6902 10.8489V13.2954Z" fill="white"/>
</g>
<defs>
<clipPath id="clip0_93_250">
<rect width="16" height="16" fill="white"/>
</clipPath>
</defs>
</svg>
