<svg height="512" viewBox="0 0 24 24" width="512" xmlns="http://www.w3.org/2000/svg">
<path fill="#525252" d="m1.293 12.707 4 4a1 1 0 1 0 1.414-1.414l-3.293-3.293 3.293-3.293a1 1 0 1 0 -1.414-1.414l-4 4a1 1 0 0 0 0 1.414z"/>
<path fill="#525252" d="m18.707 7.293a1 1 0 1 0 -1.414 1.414l3.293 3.293-3.293 3.293a1 1 0 1 0 1.414 1.414l4-4a1 1 0 0 0 0-1.414z"/>
<path fill="#525252" d="m13.039 4.726-4 14a1 1 0 0 0 .686 1.236 1.053 1.053 0 0 0 .275.038 1 1 0 0 0 .961-.726l4-14a1 1 0 1 0 -1.922-.548z"/></svg>