<svg width="32" height="32" viewBox="0 0 32 32" fill="none" xmlns="http://www.w3.org/2000/svg">
<path d="M23.0752 23.78L17.0602 29.79C16.4752 30.375 15.5252 30.375 14.9402 29.79L8.93018 23.78L16.0002 16.705L23.0752 23.78Z" fill="#525252"/>
<path d="M15.295 16L8.22502 23.075L2.21002 17.06C1.93002 16.775 1.77002 16.4 1.77002 16C1.77002 15.6 1.93002 15.225 2.21002 14.94L8.22502 8.92999L15.295 16Z" fill="#525252"/>
<path d="M23.0752 8.22499L16.0002 15.295L8.93018 8.22499L14.9402 2.20999C15.5252 1.62499 16.4752 1.62499 17.0602 2.20999L23.0752 8.22499Z" fill="#525252"/>
<path d="M30.2301 16C30.2301 16.4 30.0701 16.775 29.7901 17.06L23.7801 23.075L16.7051 16L23.7801 8.92999L29.7901 14.94C30.0701 15.225 30.2301 15.6 30.2301 16Z" fill="#525252"/>
</svg>
