<svg width="32" height="32" viewBox="0 0 32 32" fill="none" xmlns="http://www.w3.org/2000/svg">
<path d="M28 8C28 7.60791 27.771 7.25195 27.4136 7.08984L16.4136 2.08984C16.1509 1.96973 15.8491 1.96973 15.5864 2.08984L4.58643 7.08984C4.229 7.25195 4 7.60791 4 8C4 8.39209 4.229 8.74805 4.58643 8.91016L15.5864 13.9102C15.7178 13.9702 15.8589 14 16 14C16.1411 14 16.2822 13.9702 16.4136 13.9102L27.4136 8.91016C27.771 8.74805 28 8.39209 28 8V8Z" fill="#525252"/>
<path d="M14.4136 16.0898L3.41357 11.0898C3.10547 10.9497 2.74512 10.9756 2.4585 11.1592C2.17285 11.3433 2 11.6602 2 12V24C2 24.3921 2.229 24.748 2.58643 24.9102L13.5864 29.9102C13.7183 29.9702 13.8594 30 14 30C14.189 30 14.3774 29.9463 14.5415 29.8408C14.8271 29.6567 15 29.3398 15 29V17C15 16.6079 14.771 16.252 14.4136 16.0898V16.0898Z" fill="#525252"/>
<path d="M29.5415 11.1592C29.2554 10.9746 28.895 10.9492 28.5864 11.0898L17.5864 16.0898C17.229 16.2519 17 16.6079 17 17V29C17 29.3398 17.1729 29.6567 17.4585 29.8408C17.6226 29.9463 17.811 30 18 30C18.1406 30 18.2817 29.9702 18.4136 29.9101L29.4136 24.9101C29.771 24.748 30 24.3921 30 24V12C30 11.6601 29.8271 11.3433 29.5415 11.1592V11.1592Z" fill="#525252"/>
</svg>
