<svg width="15" height="15" viewBox="0 0 15 15" fill="none" xmlns="http://www.w3.org/2000/svg">
<path d="M7.50144 0C4.0894 0 1.32324 1.00833 1.32324 2.25277V4.10129C1.32324 5.34589 4.0894 6.3539 7.50144 6.3539C10.9133 6.3539 13.6795 5.34573 13.6795 4.10129V2.25277C13.6795 1.00833 10.9133 0 7.50144 0Z" fill="#525252"/>
<path d="M7.50153 7.43115C4.24391 7.43115 1.55819 6.51131 1.32334 5.34494C1.31214 5.40062 1.32334 8.39768 1.32334 8.39768C1.32334 9.64244 4.0895 10.6505 7.50153 10.6505C10.9134 10.6505 13.6796 9.64212 13.6796 8.39768C13.6796 8.39768 13.6865 5.40046 13.6755 5.34494C13.4403 6.51146 10.759 7.43115 7.50153 7.43115Z" fill="#525252"/>
<path d="M13.6738 9.69434C13.4391 10.8601 10.7592 11.7804 7.50158 11.7804C4.24396 11.7804 1.5576 10.8599 1.32275 9.69434L1.32338 12.7472C1.32338 13.9918 4.08954 14.9998 7.50158 14.9998C10.9135 14.9998 13.6796 13.9915 13.6796 12.7472L13.6738 9.69434Z" fill="#525252"/>
</svg>
