<svg width="15" height="15" viewBox="0 0 15 15" fill="none" xmlns="http://www.w3.org/2000/svg">
<g clip-path="url(#clip0_161_45)">
<path d="M3.90596 11.582C2.90538 11.582 2.01535 10.9413 1.69216 9.98755L1.6703 9.91568C1.59408 9.6631 1.56215 9.45069 1.56215 9.23817V4.97675L0.0458864 10.0381C-0.149126 10.7826 0.295259 11.5544 1.04086 11.7601L10.7055 14.3483C10.8261 14.3796 10.9468 14.3945 11.0656 14.3945C11.688 14.3945 12.2568 13.9814 12.4162 13.3726L12.9793 11.582H3.90596Z" fill="#525252"/>
<path d="M5.62458 5.01932C6.31399 5.01932 6.87454 4.45866 6.87454 3.76925C6.87454 3.07984 6.31399 2.51918 5.62458 2.51918C4.93517 2.51918 4.37451 3.07984 4.37451 3.76925C4.37451 4.45866 4.93517 5.01932 5.62458 5.01932Z" fill="#525252"/>
<path d="M13.4372 0.644135H4.06201C3.20082 0.644135 2.49951 1.34545 2.49951 2.20675V9.08184C2.49951 9.94314 3.20082 10.6445 4.06201 10.6445H13.4372C14.2985 10.6445 14.9999 9.94314 14.9999 9.08184V2.20675C14.9999 1.34545 14.2985 0.644135 13.4372 0.644135ZM4.06201 1.8942H13.4372C13.6098 1.8942 13.7498 2.03417 13.7498 2.20675V6.64373L11.7754 4.33987C11.566 4.09427 11.2628 3.963 10.9372 3.95556C10.6135 3.95739 10.3097 4.10114 10.1022 4.34994L7.78086 7.13618L7.02462 6.38177C6.59717 5.95432 5.90147 5.95432 5.47459 6.38177L3.74958 8.10621V2.20675C3.74958 2.03417 3.88955 1.8942 4.06201 1.8942Z" fill="#525252"/>
</g>
<defs>
<clipPath id="clip0_161_45">
<rect width="15" height="15" fill="white"/>
</clipPath>
</defs>
</svg>
