<svg width="12" height="12" viewBox="0 0 12 12" fill="none" xmlns="http://www.w3.org/2000/svg">
<g clip-path="url(#clip0_163_50)">
<path d="M4.99995 0H0.499951C0.225147 0 0 0.225146 0 0.499951V6C0 6.27495 0.225147 6.49995 0.499951 6.49995H4.99995C5.2749 6.49995 5.50005 6.27495 5.50005 6V0.499951C5.50005 0.225146 5.2749 0 4.99995 0Z" fill="#525252"/>
<path d="M11.5001 5.50005H7.0001C6.72515 5.50005 6.5 5.72505 6.5 6V11.5C6.5 11.7749 6.72515 12 7.0001 12H11.5001C11.7749 12 12 11.7749 12 11.5V6C12 5.72505 11.7749 5.50005 11.5001 5.50005Z" fill="#525252"/>
<path d="M4.99995 7.5H0.499951C0.225147 7.5 0 7.72515 0 7.99995V11.5C0 11.7749 0.225147 12 0.499951 12H4.99995C5.2749 12 5.50005 11.7749 5.50005 11.5V7.99995C5.50005 7.72515 5.2749 7.5 4.99995 7.5Z" fill="#525252"/>
<path d="M11.5001 0H7.0001C6.72515 0 6.5 0.225146 6.5 0.499951V4.00005C6.5 4.27485 6.72515 4.5 7.0001 4.5H11.5001C11.7749 4.5 12 4.27485 12 4.00005V0.499951C12 0.225146 11.7749 0 11.5001 0Z" fill="#525252"/>
</g>
<defs>
<clipPath id="clip0_163_50">
<rect width="12" height="12" fill="white"/>
</clipPath>
</defs>
</svg>
