<svg width="53" height="25" viewBox="0 0 53 25" fill="none" xmlns="http://www.w3.org/2000/svg">
<rect width="53" height="25" rx="12.5" fill="#535353"/>
<circle cx="39.5" cy="12.5" r="8.5" fill="white"/>
<path d="M8.88068 16V8.72727H9.76136V15.2188H13.142V16H8.88068ZM14.392 16V10.5455H15.2301V16H14.392ZM14.8182 9.63636C14.6548 9.63636 14.514 9.58073 14.3956 9.46946C14.2796 9.35819 14.2216 9.22443 14.2216 9.06818C14.2216 8.91193 14.2796 8.77817 14.3956 8.6669C14.514 8.55563 14.6548 8.5 14.8182 8.5C14.9815 8.5 15.1212 8.55563 15.2372 8.6669C15.3556 8.77817 15.4148 8.91193 15.4148 9.06818C15.4148 9.22443 15.3556 9.35819 15.2372 9.46946C15.1212 9.58073 14.9815 9.63636 14.8182 9.63636ZM19.1373 10.5455V11.2557H16.3105V10.5455H19.1373ZM17.1344 9.23864H17.9725V14.4375C17.9725 14.6742 18.0068 14.8518 18.0755 14.9702C18.1465 15.0862 18.2364 15.1643 18.3453 15.2045C18.4566 15.2424 18.5738 15.2614 18.6969 15.2614C18.7892 15.2614 18.865 15.2566 18.9242 15.2472C18.9834 15.2353 19.0307 15.2259 19.0662 15.2188L19.2367 15.9716C19.1799 15.9929 19.1006 16.0142 18.9988 16.0355C18.897 16.0592 18.7679 16.071 18.6117 16.071C18.3749 16.071 18.1429 16.0201 17.9157 15.9183C17.6908 15.8165 17.5037 15.6615 17.3546 15.4531C17.2078 15.2448 17.1344 14.982 17.1344 14.6648V9.23864ZM22.6262 16.1136C22.1007 16.1136 21.6473 15.9976 21.2662 15.7656C20.8874 15.5312 20.595 15.2045 20.389 14.7855C20.1854 14.3641 20.0836 13.8741 20.0836 13.3153C20.0836 12.7566 20.1854 12.2642 20.389 11.8381C20.595 11.4096 20.8815 11.0758 21.2484 10.8366C21.6177 10.5952 22.0486 10.4744 22.541 10.4744C22.8251 10.4744 23.1056 10.5218 23.3826 10.6165C23.6596 10.7112 23.9118 10.8651 24.139 11.0781C24.3663 11.2888 24.5474 11.5682 24.6824 11.9162C24.8173 12.2642 24.8848 12.6927 24.8848 13.2017V13.5568H20.6802V12.8324H24.0325C24.0325 12.5246 23.9709 12.25 23.8478 12.0085C23.7271 11.767 23.5543 11.5765 23.3294 11.4368C23.1068 11.2971 22.844 11.2273 22.541 11.2273C22.2072 11.2273 21.9184 11.3101 21.6745 11.4759C21.4331 11.6392 21.2472 11.8523 21.117 12.1151C20.9868 12.3778 20.9217 12.6596 20.9217 12.9602V13.4432C20.9217 13.8551 20.9927 14.2043 21.1348 14.4908C21.2792 14.7749 21.4792 14.9915 21.7349 15.1406C21.9906 15.2874 22.2877 15.3608 22.6262 15.3608C22.8464 15.3608 23.0453 15.33 23.2228 15.2685C23.4028 15.2045 23.5578 15.1098 23.688 14.9844C23.8182 14.8565 23.9189 14.6979 23.9899 14.5085L24.7995 14.7358C24.7143 15.0104 24.5711 15.2519 24.3699 15.4602C24.1686 15.6662 23.92 15.8272 23.6241 15.9432C23.3282 16.0568 22.9956 16.1136 22.6262 16.1136Z" fill="white"/>
</svg>
