<svg width="11" height="11" viewBox="0 0 11 11" fill="none" xmlns="http://www.w3.org/2000/svg">
<g clip-path="url(#clip0_12_1563)">
<path d="M5.49958 2.44446C6.1746 2.44446 6.72181 1.89725 6.72181 1.22223C6.72181 0.547212 6.1746 0 5.49958 0C4.82456 0 4.27734 0.547212 4.27734 1.22223C4.27734 1.89725 4.82456 2.44446 5.49958 2.44446Z" fill="black"/>
<path d="M5.49958 6.72223C6.1746 6.72223 6.72181 6.17502 6.72181 5.5C6.72181 4.82498 6.1746 4.27777 5.49958 4.27777C4.82456 4.27777 4.27734 4.82498 4.27734 5.5C4.27734 6.17502 4.82456 6.72223 5.49958 6.72223Z" fill="black"/>
<path d="M5.49958 11C6.1746 11 6.72181 10.4528 6.72181 9.77777C6.72181 9.10275 6.1746 8.55553 5.49958 8.55553C4.82456 8.55553 4.27734 9.10275 4.27734 9.77777C4.27734 10.4528 4.82456 11 5.49958 11Z" fill="black"/>
</g>
<defs>
<clipPath id="clip0_12_1563">
<rect width="11" height="11" fill="white"/>
</clipPath>
</defs>
</svg>
