<svg width="512" height="512" viewBox="0 0 512 512" fill="none" xmlns="http://www.w3.org/2000/svg">
<g clip-path="url(#clip0_205_394)">
<path d="M460.713 254.416H424.552C417.063 254.416 410.991 260.487 410.991 267.976V432.845C410.991 441.596 403.869 448.716 395.118 448.716H79.1491C70.3999 448.716 63.2835 441.596 63.2835 432.845V116.881C63.2835 108.129 70.3999 101.007 79.1491 101.007H252.46C259.949 101.007 266.02 94.9352 266.02 87.4462V51.2852C266.02 43.7963 259.949 37.7249 252.46 37.7249H79.1491C35.5064 37.7249 0.00170898 73.235 0.00170898 116.881V432.847C0.00170898 476.493 35.5082 512 79.1491 512H395.117C438.763 512 474.271 476.492 474.271 432.847V267.978C474.273 260.487 468.202 254.416 460.713 254.416Z" fill="#525252"/>
<path d="M498.438 0H354.602C347.113 0 341.042 6.07143 341.042 13.5604V49.7214C341.042 57.2103 347.113 63.2818 354.602 63.2818H403.969L218.201 249.046C212.905 254.342 212.905 262.927 218.201 268.224L243.77 293.795C246.314 296.339 249.762 297.768 253.36 297.768C256.956 297.768 260.406 296.339 262.948 293.795L448.716 108.027V157.393C448.716 164.882 454.788 170.953 462.277 170.953H498.438C505.927 170.953 511.998 164.882 511.998 157.393V13.5604C511.998 6.07143 505.927 0 498.438 0Z" fill="#525252"/>
</g>
<defs>
<clipPath id="clip0_205_394">
<rect width="512" height="512" fill="white"/>
</clipPath>
</defs>
</svg>
