<svg width="16" height="16" viewBox="0 0 16 16" fill="none" xmlns="http://www.w3.org/2000/svg">
<path d="M11 4V1.315L13.73 4.5H11.5C11.3674 4.5 11.2402 4.44732 11.1464 4.35355C11.0527 4.25979 11 4.13261 11 4ZM11.5 5.5C11.1022 5.5 10.7206 5.34196 10.4393 5.06066C10.158 4.77936 10 4.39782 10 4V1H3.5C3.10218 1 2.72064 1.15804 2.43934 1.43934C2.15804 1.72064 2 2.10218 2 2.5V13.5C2 13.8978 2.15804 14.2794 2.43934 14.5607C2.72064 14.842 3.10218 15 3.5 15H12.5C12.8978 15 13.2794 14.842 13.5607 14.5607C13.842 14.2794 14 13.8978 14 13.5V5.5H11.5Z" fill="#525252"/>
</svg>
