<svg width="12" height="12" viewBox="0 0 12 12" fill="none" xmlns="http://www.w3.org/2000/svg">
<g clip-path="url(#clip0_14_1738)">
<path d="M7.5 11.5H2.5C1.96957 11.5 1.46086 11.2893 1.08579 10.9142C0.710714 10.5391 0.5 10.0304 0.5 9.5V4.5C0.5 3.96957 0.710714 3.46086 1.08579 3.08579C1.46086 2.71071 1.96957 2.5 2.5 2.5H7.5C8.03043 2.5 8.53914 2.71071 8.91421 3.08579C9.28929 3.46086 9.5 3.96957 9.5 4.5V9.5C9.5 10.0304 9.28929 10.5391 8.91421 10.9142C8.53914 11.2893 8.03043 11.5 7.5 11.5ZM2.5 3.5C2.23478 3.5 1.98043 3.60536 1.79289 3.79289C1.60536 3.98043 1.5 4.23478 1.5 4.5V9.5C1.5 9.76522 1.60536 10.0196 1.79289 10.2071C1.98043 10.3946 2.23478 10.5 2.5 10.5H7.5C7.76522 10.5 8.01957 10.3946 8.20711 10.2071C8.39464 10.0196 8.5 9.76522 8.5 9.5V4.5C8.5 4.23478 8.39464 3.98043 8.20711 3.79289C8.01957 3.60536 7.76522 3.5 7.5 3.5H2.5Z" fill="black"/>
<path d="M9.5 9.5V8.5C9.76522 8.5 10.0196 8.39464 10.2071 8.20711C10.3946 8.01957 10.5 7.76522 10.5 7.5V2.5C10.5 2.23478 10.3946 1.98043 10.2071 1.79289C10.0196 1.60536 9.76522 1.5 9.5 1.5H4.5C4.23478 1.5 3.98043 1.60536 3.79289 1.79289C3.60536 1.98043 3.5 2.23478 3.5 2.5H2.5C2.5 1.96957 2.71071 1.46086 3.08579 1.08579C3.46086 0.710714 3.96957 0.5 4.5 0.5H9.5C10.0304 0.5 10.5391 0.710714 10.9142 1.08579C11.2893 1.46086 11.5 1.96957 11.5 2.5V7.5C11.5 8.03043 11.2893 8.53914 10.9142 8.91421C10.5391 9.28929 10.0304 9.5 9.5 9.5Z" fill="black"/>
</g>
<defs>
<clipPath id="clip0_14_1738">
<rect width="12" height="12" fill="white"/>
</clipPath>
</defs>
</svg>
