<svg width="53" height="25" viewBox="0 0 53 25" fill="none" xmlns="http://www.w3.org/2000/svg">
<rect width="53" height="25" rx="12.5" fill="#535353"/>
<circle cx="13.5" cy="12.5" r="8.5" fill="white"/>
<path d="M28.8807 16V8.72727H31.3381C31.9086 8.72727 32.375 8.83026 32.7372 9.03622C33.1018 9.23982 33.3717 9.51562 33.5469 9.86364C33.7221 10.2116 33.8097 10.5999 33.8097 11.0284C33.8097 11.4569 33.7221 11.8464 33.5469 12.1967C33.3741 12.5471 33.1065 12.8265 32.7443 13.0348C32.3821 13.2408 31.9181 13.3438 31.3523 13.3438H29.5909V12.5625H31.3239C31.7145 12.5625 32.0282 12.495 32.2649 12.3601C32.5017 12.2251 32.6733 12.0429 32.7798 11.8132C32.8887 11.5812 32.9432 11.3196 32.9432 11.0284C32.9432 10.7372 32.8887 10.4768 32.7798 10.2472C32.6733 10.0175 32.5005 9.83759 32.2614 9.70739C32.0223 9.57481 31.705 9.50852 31.3097 9.50852H29.7614V16H28.8807ZM35.1147 16V10.5455H35.9244V11.3693H35.9812C36.0806 11.0994 36.2605 10.8804 36.521 10.7124C36.7814 10.5443 37.0749 10.4602 37.4016 10.4602C37.4632 10.4602 37.5401 10.4614 37.6325 10.4638C37.7248 10.4661 37.7946 10.4697 37.842 10.4744V11.3267C37.8136 11.3196 37.7485 11.3089 37.6467 11.2947C37.5472 11.2782 37.4419 11.2699 37.3306 11.2699C37.0655 11.2699 36.8287 11.3255 36.6204 11.4368C36.4144 11.5457 36.2511 11.6972 36.1303 11.8913C36.012 12.0831 35.9528 12.3021 35.9528 12.5483V16H35.1147ZM40.8853 16.1136C40.3929 16.1136 39.9608 15.9964 39.5891 15.7621C39.2198 15.5277 38.931 15.1998 38.7227 14.7784C38.5167 14.357 38.4137 13.8646 38.4137 13.3011C38.4137 12.733 38.5167 12.237 38.7227 11.8132C38.931 11.3894 39.2198 11.0604 39.5891 10.826C39.9608 10.5916 40.3929 10.4744 40.8853 10.4744C41.3777 10.4744 41.8086 10.5916 42.1779 10.826C42.5496 11.0604 42.8384 11.3894 43.0444 11.8132C43.2527 12.237 43.3569 12.733 43.3569 13.3011C43.3569 13.8646 43.2527 14.357 43.0444 14.7784C42.8384 15.1998 42.5496 15.5277 42.1779 15.7621C41.8086 15.9964 41.3777 16.1136 40.8853 16.1136ZM40.8853 15.3608C41.2594 15.3608 41.5671 15.2649 41.8086 15.0732C42.0501 14.8814 42.2288 14.6293 42.3448 14.3168C42.4608 14.0043 42.5188 13.6657 42.5188 13.3011C42.5188 12.9366 42.4608 12.5968 42.3448 12.282C42.2288 11.9671 42.0501 11.7126 41.8086 11.5185C41.5671 11.3243 41.2594 11.2273 40.8853 11.2273C40.5112 11.2273 40.2035 11.3243 39.962 11.5185C39.7205 11.7126 39.5418 11.9671 39.4258 12.282C39.3098 12.5968 39.2518 12.9366 39.2518 13.3011C39.2518 13.6657 39.3098 14.0043 39.4258 14.3168C39.5418 14.6293 39.7205 14.8814 39.962 15.0732C40.2035 15.2649 40.5112 15.3608 40.8853 15.3608Z" fill="white"/>
</svg>
