<svg width="22" height="22" viewBox="0 0 22 22" fill="none" xmlns="http://www.w3.org/2000/svg">
<g clip-path="url(#clip0_214_10)">
<path d="M21.5116 9.08591L18.9881 8.46532C18.8364 7.98695 18.6413 7.52305 18.4058 7.07932C18.7847 6.44862 19.581 5.12119 19.581 5.12119C19.7333 4.86754 19.693 4.54274 19.4841 4.33379L17.6612 2.51096C17.4523 2.30136 17.1281 2.2611 16.8738 2.41403L14.9125 3.58918C14.4713 3.35564 14.0099 3.16241 13.5347 3.01198L12.9141 0.488469C12.8423 0.201438 12.5849 0 12.2891 0H9.71094C9.4151 0 9.15703 0.201437 9.08591 0.488426C9.08591 0.488426 8.65601 2.24971 8.46592 3.01134C7.95923 3.17182 7.46956 3.38018 7.00313 3.63447L4.96946 2.41403C4.71518 2.26295 4.39166 2.30201 4.18206 2.51096L2.35924 4.33379C2.15029 4.54274 2.10998 4.86754 2.2623 5.12119L3.51991 7.22159C3.31723 7.62128 3.14729 8.0373 3.01198 8.46343L0.488469 9.08591C0.201438 9.15767 0 9.4151 0 9.71094V12.2891C0 12.5849 0.201437 12.843 0.488426 12.9141L3.01258 13.5347C3.16555 14.02 3.36441 14.4914 3.60551 14.944L2.48011 16.8196C2.32779 17.0733 2.36809 17.3981 2.57705 17.607L4.39987 19.4299C4.60823 19.6382 4.93298 19.6778 5.18727 19.5268C5.18727 19.5268 6.44927 18.7703 7.06737 18.4001C7.51489 18.6387 7.98316 18.8357 8.46596 18.9886L9.08596 21.5115C9.15703 21.7986 9.4151 22 9.71094 22H12.2891C12.5849 22 12.8423 21.7986 12.9141 21.5116L13.5341 18.9887C14.0307 18.8313 14.509 18.628 14.9641 18.3813C15.5992 18.762 16.8738 19.5268 16.8738 19.5268C17.1274 19.6785 17.4522 19.6395 17.6612 19.4299L19.484 17.607C19.693 17.3981 19.7333 17.0733 19.5809 16.8196L18.4222 14.8892C18.6506 14.4555 18.8401 14.0017 18.988 13.5347L21.5115 12.9141C21.7986 12.8423 22 12.5849 22 12.2891V9.71094C22 9.4151 21.7986 9.15767 21.5116 9.08591ZM11 15.5117C8.5125 15.5117 6.48828 13.4875 6.48828 11C6.48828 8.5125 8.5125 6.48828 11 6.48828C13.4875 6.48828 15.5117 8.5125 15.5117 11C15.5117 13.4875 13.4875 15.5117 11 15.5117Z" fill="#525252"/>
</g>
<defs>
<clipPath id="clip0_214_10">
<rect width="22" height="22" fill="white"/>
</clipPath>
</defs>
</svg>
