<svg width="18" height="18" viewBox="0 0 18 18" fill="none" xmlns="http://www.w3.org/2000/svg">
<g clip-path="url(#clip0_100_371)">
<path d="M16.5201 10.754L15.0494 9.604C15.0687 9.42666 15.0841 9.21934 15.0841 9C15.0841 8.78066 15.068 8.57334 15.0494 8.396L16.5214 7.24534C16.7947 7.02934 16.87 6.646 16.6954 6.32669L15.166 3.68069C14.9987 3.37603 14.6234 3.23669 14.2814 3.36269L12.5461 4.05934C12.2141 3.81934 11.8654 3.61669 11.5047 3.45469L11.2407 1.61403C11.1974 1.264 10.8934 1 10.534 1H7.46739C7.10805 1 6.80405 1.264 6.76139 1.60734L6.49674 3.45469C6.14739 3.61269 5.80408 3.81203 5.45674 4.06003L3.71674 3.36138C3.38408 3.23138 3.00539 3.36872 2.83874 3.67403L1.30739 6.32403C1.12674 6.62938 1.20074 7.02537 1.48074 7.24669L2.95139 8.39603C2.92805 8.62138 2.91674 8.81669 2.91674 9.00003C2.91674 9.18338 2.92808 9.37869 2.95008 9.60403L1.47808 10.7554C1.20539 10.9713 1.13071 11.3547 1.30471 11.674L2.83405 14.32C3.00005 14.624 3.37471 14.7627 3.71871 14.638L5.45405 13.9413C5.78605 14.1807 6.13539 14.3833 6.49605 14.546L6.76005 16.386C6.80339 16.736 7.10739 17 7.46671 17H10.5334C10.8927 17 11.1967 16.736 11.2394 16.3927L11.504 14.546C11.8534 14.388 12.1967 14.1887 12.544 13.9407L14.284 14.6393C14.6154 14.768 14.9954 14.632 15.162 14.3267L16.6994 11.6673C16.8694 11.3553 16.7947 10.972 16.5201 10.754ZM16.1167 11.3407L14.5287 14.0193L12.6201 13.2527C12.5121 13.2093 12.3894 13.226 12.2961 13.2953C11.8827 13.6047 11.4834 13.8373 11.074 14.0047C10.9647 14.0493 10.8867 14.1487 10.8701 14.266L10.5334 16.3333L7.42205 16.298L7.13071 14.2667C7.11336 14.1493 7.03605 14.05 6.92671 14.0053C6.50071 13.8307 6.09071 13.5927 5.70736 13.298C5.64802 13.252 5.57602 13.2286 5.50402 13.2286C5.46202 13.2286 5.42002 13.236 5.37936 13.2526L3.41602 13.9933L1.88668 11.3473C1.87268 11.3213 1.87533 11.2913 1.89133 11.2786L3.50933 10.014C3.60133 9.94197 3.64933 9.82597 3.63468 9.70997C3.59933 9.43062 3.58333 9.20462 3.58333 8.99997C3.58333 8.79531 3.59999 8.56997 3.63468 8.28997C3.64933 8.17331 3.60133 8.05797 3.50933 7.98597L1.88339 6.66L3.47139 3.98134L5.38005 4.748C5.48871 4.792 5.61071 4.77534 5.70471 4.70534C6.11736 4.39534 6.51736 4.16334 6.92671 3.996C7.03605 3.95066 7.11336 3.85134 7.13005 3.73466L7.46739 1.66666L10.5794 1.70266L10.8701 3.73466C10.8874 3.852 10.9647 3.95131 11.074 3.996C11.4994 4.17 11.9094 4.408 12.2934 4.70334C12.3874 4.77534 12.5107 4.79269 12.6207 4.748L14.5841 4.00734L16.1134 6.65334C16.1274 6.67934 16.1248 6.70869 16.1088 6.72134L14.4908 7.986C14.3988 8.058 14.3508 8.17334 14.3654 8.29C14.3908 8.49266 14.4168 8.736 14.4168 9C14.4168 9.26466 14.3908 9.50734 14.3654 9.71C14.3508 9.826 14.3988 9.942 14.4908 10.014L16.1068 11.278C16.124 11.292 16.1274 11.322 16.1167 11.3407Z" fill="white"/>
<path d="M8.99936 5.66663C7.16136 5.66663 5.66602 7.16197 5.66602 8.99997C5.66602 10.838 7.16136 12.3333 8.99936 12.3333C10.8374 12.3333 12.3327 10.838 12.3327 8.99997C12.3327 7.16197 10.8374 5.66663 8.99936 5.66663ZM8.99936 11.6666C7.5287 11.6666 6.3327 10.4706 6.3327 8.99997C6.3327 7.52931 7.5287 6.33331 8.99936 6.33331C10.47 6.33331 11.666 7.52931 11.666 8.99997C11.666 10.4706 10.47 11.6666 8.99936 11.6666Z" fill="white"/>
</g>
<defs>
<clipPath id="clip0_100_371">
<rect width="16" height="16" fill="white" transform="translate(1 1)"/>
</clipPath>
</defs>
</svg>
