<svg width="22" height="22" viewBox="0 0 22 22" fill="none" xmlns="http://www.w3.org/2000/svg">
<g clip-path="url(#clip0_214_6)">
<path d="M21.8111 9.30382C22.0628 9.05215 22.0628 8.64403 21.8111 8.39232L13.6077 0.188814C13.3559 -0.0628972 12.9479 -0.0628972 12.6962 0.188814L9.50586 3.37903L18.6209 12.4941L21.8111 9.30382Z" fill="#525252"/>
<path d="M6.60069 20.8663C7.3318 20.1352 7.73446 19.1645 7.73442 18.1329C7.73442 17.3602 8.99005 15.8047 10.2741 15.2728C10.6455 15.119 11.1518 14.9993 11.4549 15.3024C11.7731 15.6205 11.806 15.6535 11.8071 15.6546C11.8083 15.6558 11.8095 15.6571 11.8108 15.6583C12.2962 16.1438 12.9436 16.4111 13.6339 16.4111C14.3239 16.4111 14.9714 16.1437 15.4568 15.6582L17.7095 13.4056L8.59452 4.29053L6.3418 6.54325C5.85634 7.02871 5.58895 7.67612 5.58895 8.36633C5.58895 9.05645 5.8563 9.70386 6.3424 10.19C6.34421 10.1918 6.36956 10.2171 6.69775 10.5452C6.82649 10.674 6.88652 10.832 6.88652 11.0425C6.88652 12.3069 4.88061 14.2657 3.86723 14.2657C1.73495 14.2656 8.59375e-05 16.0004 0 18.1328V18.1329C4.29688e-05 19.1645 0.402703 20.1353 1.13382 20.8662C1.86489 21.5974 2.83564 22 3.86723 22C4.89882 22 5.86962 21.5974 6.60069 20.8663V20.8663ZM3.22266 18.1328C3.22266 17.7769 3.51123 17.4883 3.86719 17.4883C4.22314 17.4883 4.51172 17.7769 4.51172 18.1328C4.51172 18.4888 4.22314 18.7774 3.86719 18.7774C3.51123 18.7774 3.22266 18.4888 3.22266 18.1328Z" fill="#525252"/>
</g>
<defs>
<clipPath id="clip0_214_6">
<rect width="22" height="22" fill="white"/>
</clipPath>
</defs>
</svg>
