<svg width="27" height="27" viewBox="0 0 27 27" fill="none" xmlns="http://www.w3.org/2000/svg">
<g clip-path="url(#clip0_207_150)">
<path fill-rule="evenodd" clip-rule="evenodd" d="M4.77617 -6.10352e-05H22.2238C23.1352 -6.10352e-05 23.8808 0.745614 23.8808 1.65703V25.343C23.8808 26.2544 23.1352 27.0001 22.2238 27.0001H4.77617C3.86475 27.0001 3.11914 26.2544 3.11914 25.343V1.65703C3.11914 0.745614 3.86475 -6.10352e-05 4.77617 -6.10352e-05V-6.10352e-05ZM12.1354 25.2014H14.8646V25.8015H12.1354V25.2014ZM12.8299 1.19855C12.6642 1.19855 12.5299 1.3329 12.5299 1.49858C12.5299 1.66425 12.6642 1.7986 12.8299 1.7986H12.83C12.9957 1.7986 13.1301 1.66425 13.1301 1.49858C13.1301 1.3329 12.9957 1.19855 12.83 1.19855H12.8299ZM14.1699 1.19855C14.0042 1.19855 13.8699 1.3329 13.8699 1.49858C13.8699 1.66425 14.0042 1.7986 14.1699 1.7986H14.17C14.3357 1.7986 14.4701 1.66425 14.4701 1.49858C14.4701 1.3329 14.3357 1.19855 14.17 1.19855H14.1699ZM4.87358 2.99715H22.1264V24.0029H4.87358V2.99715Z" fill="#525252"/>
</g>
<defs>
<clipPath id="clip0_207_150">
<rect width="27" height="27" fill="white"/>
</clipPath>
</defs>
</svg>
